<svg xmlns="http://www.w3.org/2000/svg" version="1.1" xmlns:xlink="http://www.w3.org/1999/xlink" xmlns:svgjs="http://svgjs.com/svgjs" width="1440" height="560" preserveAspectRatio="none" viewBox="0 0 1440 560"><g mask="url(&quot;#SvgjsMask1065&quot;)" fill="none"><rect width="1440" height="560" x="0" y="0" fill="rgba(169, 223, 191, 1)"></rect><path d="M1339 104L1338 -114" stroke-width="6" stroke="url(#SvgjsLinearGradient1066)" stroke-linecap="round" class="Down"></path><path d="M208 453L207 118" stroke-width="6" stroke="url(#SvgjsLinearGradient1066)" stroke-linecap="round" class="Down"></path><path d="M1081 179L1080 325" stroke-width="6" stroke="url(#SvgjsLinearGradient1067)" stroke-linecap="round" class="Up"></path><path d="M816 440L815 295" stroke-width="8" stroke="url(#SvgjsLinearGradient1067)" stroke-linecap="round" class="Up"></path><path d="M1386 552L1385 806" stroke-width="8" stroke="url(#SvgjsLinearGradient1068)" stroke-linecap="round" class="Up"></path><path d="M764 257L763 62" stroke-width="10" stroke="url(#SvgjsLinearGradient1067)" stroke-linecap="round" class="Up"></path><path d="M497 518L496 346" stroke-width="8" stroke="url(#SvgjsLinearGradient1068)" stroke-linecap="round" class="Up"></path><path d="M1186 449L1185 746" stroke-width="8" stroke="url(#SvgjsLinearGradient1069)" stroke-linecap="round" class="Down"></path><path d="M1277 170L1276 353" stroke-width="6" stroke="url(#SvgjsLinearGradient1067)" stroke-linecap="round" class="Up"></path><path d="M1276 502L1275 694" stroke-width="8" stroke="url(#SvgjsLinearGradient1069)" stroke-linecap="round" class="Down"></path><path d="M48 160L47 406" stroke-width="6" stroke="url(#SvgjsLinearGradient1069)" stroke-linecap="round" class="Down"></path><path d="M846 439L845 849" stroke-width="6" stroke="url(#SvgjsLinearGradient1067)" stroke-linecap="round" class="Up"></path><path d="M940 292L939 -97" stroke-width="10" stroke="url(#SvgjsLinearGradient1066)" stroke-linecap="round" class="Down"></path><path d="M17 200L16 613" stroke-width="6" stroke="url(#SvgjsLinearGradient1066)" stroke-linecap="round" class="Down"></path><path d="M941 197L940 604" stroke-width="8" stroke="url(#SvgjsLinearGradient1068)" stroke-linecap="round" class="Up"></path><path d="M1359 217L1358 405" stroke-width="6" stroke="url(#SvgjsLinearGradient1066)" stroke-linecap="round" class="Down"></path><path d="M128 114L127 -289" stroke-width="6" stroke="url(#SvgjsLinearGradient1068)" stroke-linecap="round" class="Up"></path><path d="M442 507L441 280" stroke-width="8" stroke="url(#SvgjsLinearGradient1069)" stroke-linecap="round" class="Down"></path><path d="M436 77L435 265" stroke-width="8" stroke="url(#SvgjsLinearGradient1069)" stroke-linecap="round" class="Down"></path><path d="M1216 550L1215 828" stroke-width="8" stroke="url(#SvgjsLinearGradient1068)" stroke-linecap="round" class="Up"></path><path d="M1204 16L1203 229" stroke-width="6" stroke="url(#SvgjsLinearGradient1069)" stroke-linecap="round" class="Down"></path><path d="M1082 399L1081 16" stroke-width="8" stroke="url(#SvgjsLinearGradient1067)" stroke-linecap="round" class="Up"></path><path d="M580 156L579 560" stroke-width="10" stroke="url(#SvgjsLinearGradient1067)" stroke-linecap="round" class="Up"></path><path d="M323 288L322 -70" stroke-width="8" stroke="url(#SvgjsLinearGradient1069)" stroke-linecap="round" class="Down"></path><path d="M212 273L211 557" stroke-width="6" stroke="url(#SvgjsLinearGradient1067)" stroke-linecap="round" class="Up"></path><path d="M605 541L604 838" stroke-width="8" stroke="url(#SvgjsLinearGradient1068)" stroke-linecap="round" class="Up"></path><path d="M1281 70L1280 429" stroke-width="8" stroke="url(#SvgjsLinearGradient1067)" stroke-linecap="round" class="Up"></path><path d="M963 444L962 699" stroke-width="10" stroke="url(#SvgjsLinearGradient1069)" stroke-linecap="round" class="Down"></path><path d="M620 22L619 -278" stroke-width="10" stroke="url(#SvgjsLinearGradient1066)" stroke-linecap="round" class="Down"></path><path d="M603 262L602 -39" stroke-width="8" stroke="url(#SvgjsLinearGradient1066)" stroke-linecap="round" class="Down"></path><path d="M937 162L936 341" stroke-width="6" stroke="url(#SvgjsLinearGradient1067)" stroke-linecap="round" class="Up"></path><path d="M65 55L64 315" stroke-width="8" stroke="url(#SvgjsLinearGradient1068)" stroke-linecap="round" class="Up"></path><path d="M354 66L353 380" stroke-width="10" stroke="url(#SvgjsLinearGradient1069)" stroke-linecap="round" class="Down"></path><path d="M1267 263L1266 -121" stroke-width="10" stroke="url(#SvgjsLinearGradient1066)" stroke-linecap="round" class="Down"></path><path d="M1328 108L1327 494" stroke-width="8" stroke="url(#SvgjsLinearGradient1068)" stroke-linecap="round" class="Up"></path><path d="M1095 189L1094 577" stroke-width="6" stroke="url(#SvgjsLinearGradient1067)" stroke-linecap="round" class="Up"></path></g><defs><mask id="SvgjsMask1065"><rect width="1440" height="560" fill="#ffffff"></rect></mask><linearGradient x1="0%" y1="0%" x2="0%" y2="100%" id="SvgjsLinearGradient1066"><stop stop-color="rgba(20, 90, 50, 0)" offset="0"></stop><stop stop-color="rgba(20, 90, 50, 1)" offset="1"></stop></linearGradient><linearGradient x1="0%" y1="100%" x2="0%" y2="0%" id="SvgjsLinearGradient1067"><stop stop-color="rgba(20, 90, 50, 0)" offset="0"></stop><stop stop-color="rgba(20, 90, 50, 1)" offset="1"></stop></linearGradient><linearGradient x1="0%" y1="100%" x2="0%" y2="0%" id="SvgjsLinearGradient1068"><stop stop-color="rgba(7, 41, 21, 0)" offset="0"></stop><stop stop-color="rgba(7, 41, 21, 1)" offset="1"></stop></linearGradient><linearGradient x1="0%" y1="0%" x2="0%" y2="100%" id="SvgjsLinearGradient1069"><stop stop-color="rgba(7, 41, 21, 0)" offset="0"></stop><stop stop-color="rgba(7, 41, 21, 1)" offset="1"></stop></linearGradient></defs></svg>